<?xml version="1.0" encoding="UTF-8"?>
<!DOCTYPE svg PUBLIC "-//W3C//DTD SVG 1.1//EN" "http://www.w3.org/Graphics/SVG/1.1/DTD/svg11.dtd">
<!-- Creator: CorelDRAW 2019 -->
<svg xmlns="http://www.w3.org/2000/svg" xml:space="preserve" width="42.3332mm" height="9.7612mm" version="1.1" shape-rendering="geometricPrecision" text-rendering="geometricPrecision" image-rendering="optimizeQuality" fill-rule="evenodd" clip-rule="evenodd"
viewBox="0 0 42.3332 9.7612"
 xmlns:xlink="http://www.w3.org/1999/xlink"
 xmlns:xodm="http://www.corel.com/coreldraw/odm/2003">
 <g id="Layer_x0020_1">
  <metadata id="CorelCorpID_0Corel-Layer"/>
  <path fill="#0A1D62" d="M17.8918 7.0701c-0.3879,0.3742 -0.8861,0.5933 -1.4323,0.6356 -0.571,0.0441 -1.1626,-0.1102 -1.6343,-0.4363 -0.5098,-0.3524 -0.8672,-0.9267 -1.038,-1.5156 -0.2038,-0.703 -0.1559,-1.448 0.1361,-2.1194 0.2317,-0.5328 0.63,-0.957 1.138,-1.2361 0.429,-0.2357 0.918,-0.3575 1.4069,-0.3617 0.2634,-0.0023 0.5273,0.0296 0.7822,0.0964 0.5726,0.1502 1.078,0.4706 1.4408,0.9408 0.4321,0.5601 0.602,1.2494 0.6004,1.9481 -0.0012,0.5313 0.0255,1.0644 0.014,1.5951 -0.0101,0.4707 -0.0543,0.9459 -0.2178,1.3908 -0.1402,0.3818 -0.3563,0.7073 -0.6459,0.9923 -0.4595,0.4522 -1.0953,0.7132 -1.7321,0.7763 -0.6872,0.0681 -1.3932,-0.0945 -1.9667,-0.4835 -0.2365,-0.1604 -0.4966,-0.3825 -0.6716,-0.6077 -0.2966,-0.3815 -0.1242,-0.9378 0.3464,-1.0594 0.1521,-0.0394 0.3021,-0.0387 0.4472,0.0262 0.192,0.0859 0.321,0.2637 0.4709,0.4045 0.1949,0.1832 0.4016,0.2867 0.6614,0.3513 0.4671,0.1162 0.9616,0.0949 1.3468,-0.2221 0.333,-0.2739 0.4962,-0.6889 0.5476,-1.1156zm-1.5852 -3.6897c-0.4558,0.061 -0.8293,0.2934 -1.05,0.7011 -0.1353,0.2499 -0.1966,0.5383 -0.1912,0.8215 0.0067,0.3479 0.1147,0.7029 0.3293,0.9796 0.3179,0.41 0.7858,0.5498 1.2901,0.4912 0.3868,-0.0449 0.7138,-0.2228 0.9356,-0.546 0.2004,-0.2919 0.2839,-0.6587 0.2695,-1.0095 -0.0156,-0.3793 -0.1473,-0.7707 -0.4067,-1.0534 -0.3086,-0.3363 -0.7328,-0.4438 -1.1766,-0.3845zm11.4301 2.0642c0.0132,0.0371 0.0281,0.0735 0.0446,0.1093 0.2927,0.6369 0.9965,0.9575 1.6755,0.8489 0.4594,-0.0735 0.9448,-0.5671 1.4126,-0.3928 0.3496,0.1302 0.5433,0.5555 0.3497,0.8907 -0.12,0.2076 -0.3791,0.3483 -0.5889,0.4543 -0.973,0.4916 -2.1512,0.4736 -3.0764,-0.1169 -0.385,-0.2456 -0.6902,-0.5872 -0.9013,-0.9913 -0.2657,-0.5087 -0.3717,-1.0961 -0.3197,-1.6664 0.0915,-1.0024 0.6576,-1.885 1.5918,-2.3016 0.5026,-0.2241 1.0632,-0.2914 1.6052,-0.1995 0.4882,0.0829 0.9696,0.2984 1.3273,0.6455 0.2429,0.2357 0.4385,0.571 0.5706,0.8805 0.1928,0.4517 0.4065,1.246 0.0061,1.6466 -0.128,0.1281 -0.2945,0.1881 -0.4732,0.1967 -1.074,0.0521 -2.1496,-0.0227 -3.2239,-0.004zm0.0103 -1.2247l2.501 0.0002c-0.1223,-0.408 -0.3913,-0.7314 -0.8348,-0.8526 -0.3682,-0.1006 -0.7799,-0.0338 -1.1058,0.1615 -0.2717,0.1627 -0.4668,0.4016 -0.5604,0.6909zm-26.3341 1.2303c0.0879,0.2443 0.2394,0.4591 0.445,0.6275 0.5197,0.4253 1.24,0.4562 1.8222,0.1405 0.1089,-0.0591 0.1987,-0.1323 0.3156,-0.1848 0.1867,-0.0838 0.3739,-0.0918 0.5662,-0.0189 0.3616,0.137 0.5366,0.6211 0.3047,0.9462 -0.1111,0.1557 -0.4276,0.3352 -0.605,0.4171 -1.062,0.4904 -2.3141,0.4738 -3.2478,-0.2851 -0.754,-0.6128 -1.0758,-1.5401 -1.004,-2.4943 0.0766,-1.0196 0.649,-1.8929 1.5896,-2.3124 0.9875,-0.4404 2.1177,-0.2613 2.9422,0.431 0.3232,0.2713 0.6,0.8758 0.6961,1.2867 0.018,0.0769 0.0353,0.154 0.0505,0.2315 0.0593,0.3028 0.1016,0.6817 -0.0933,0.9463 -0.1387,0.1883 -0.353,0.2614 -0.5795,0.2682 -0.2339,0.007 -0.4705,0.0044 -0.7045,0.0031 -0.3335,-0.0017 -0.667,-0.005 -1.0005,-0.0074 -0.377,-0.0028 -0.7543,-0.0054 -1.1313,-0.0019 -0.122,0.0011 -0.2442,0.0027 -0.3662,0.0067zm0.0135 -1.2275l2.4948 0.0027c-0.1291,-0.4216 -0.4154,-0.7527 -0.8768,-0.8658 -0.3573,-0.0876 -0.7476,-0.0193 -1.0599,0.1729 -0.2681,0.165 -0.4573,0.4049 -0.5581,0.6902zm31.924 1.2205c0.0184,0.0514 0.0398,0.1017 0.0641,0.1507 0.3139,0.633 1.0069,0.9247 1.6887,0.8023 0.2017,-0.0362 0.3637,-0.1042 0.5388,-0.2077 0.1526,-0.0902 0.2985,-0.1951 0.477,-0.227 0.1309,-0.0234 0.2561,-0.0036 0.3778,0.0482 0.3678,0.1567 0.5524,0.6371 0.2778,0.9677 -0.1187,0.1429 -0.4253,0.3206 -0.5981,0.4004 -0.9811,0.4531 -2.1653,0.4548 -3.0745,-0.1706 -0.8674,-0.5968 -1.2209,-1.5797 -1.1558,-2.6056 0.0586,-0.9234 0.5203,-1.7194 1.3261,-2.1844 0.7031,-0.4059 1.5863,-0.5002 2.3518,-0.2199 0.8135,0.2979 1.3459,0.9556 1.5429,1.7914 0.0597,0.2528 0.1133,0.649 0.0753,0.9042 -0.0599,0.4029 -0.3399,0.5401 -0.718,0.5464 -1.0575,0.0178 -2.1167,-0.0262 -3.1739,0.0039zm0.0183 -1.2319l2.4958 0.0013c-0.1479,-0.5613 -0.6012,-0.8953 -1.232,-0.8813 -0.6402,0.0142 -1.0648,0.3368 -1.2638,0.88zm-11.8011 -1.73c0.0967,-0.071 0.1941,-0.1331 0.3027,-0.1853 0.2548,-0.1226 0.516,-0.2023 0.7968,-0.2373 0.606,-0.0755 1.1224,0.035 1.654,0.3217 0.4187,0.2258 0.7246,0.5534 0.9145,0.9896 0.2569,0.5902 0.2562,1.2618 0.2562,1.894 0,0.2978 0.0107,0.5972 0.0138,0.8953 0.002,0.1949 0.0028,0.3904 -0.0025,0.5853 -0.0034,0.1282 -0.0065,0.2992 -0.0381,0.4229 -0.0585,0.2289 -0.2505,0.402 -0.4695,0.4766 -0.1153,0.0393 -0.2397,0.052 -0.3601,0.0314 -0.4123,-0.0704 -0.5716,-0.4551 -0.5738,-0.8336 -0.0036,-0.6203 0.0011,-1.2407 0.0017,-1.861 0.0004,-0.3155 0.0031,-0.7302 -0.1408,-1.0181 -0.0467,-0.0933 -0.1079,-0.1739 -0.1836,-0.2456 -0.3008,-0.2845 -0.7191,-0.3876 -1.1231,-0.3253 -0.3383,0.0521 -0.7074,0.2348 -0.8689,0.5515 -0.0192,0.0376 -0.0352,0.0767 -0.0475,0.1171 -0.0549,0.18 -0.0609,0.4289 -0.0624,0.6165 -0.0024,0.2926 0.0123,0.5869 0.0248,0.8792 0.0168,0.395 0.0386,0.8125 0.0042,1.2063 -0.0265,0.3019 -0.0973,0.7129 -0.4096,0.8503 -0.3412,0.1501 -0.774,0.0384 -0.9453,-0.3061 -0.1232,-0.2476 -0.085,-0.6735 -0.085,-0.952 0,-0.6046 -0.0081,-1.2098 -0.0099,-1.8146 -0.0013,-0.4086 -0.002,-0.8176 0.0025,-1.2262 0.0016,-0.1455 0.0036,-0.2914 0.0088,-0.4368 0.0028,-0.0783 0.004,-0.1862 0.0222,-0.2618 0.0503,-0.2097 0.2115,-0.3799 0.4041,-0.4694 0.1073,-0.0499 0.2259,-0.0756 0.3444,-0.0697 0.2808,0.0139 0.4649,0.1822 0.5694,0.4051zm18.1583 -0.4202c0.6028,-0.0746 1.3415,0.0477 1.8507,0.3846 0.2223,0.1471 0.4627,0.3473 0.5786,0.5934 0.0924,0.1961 0.0983,0.4167 -0.0265,0.6006 -0.142,0.209 -0.4062,0.3003 -0.651,0.2722 -0.3084,-0.0353 -0.4428,-0.1903 -0.6717,-0.359 -0.026,-0.0192 -0.0528,-0.0375 -0.0811,-0.0531 -0.1783,-0.0988 -0.4407,-0.1391 -0.642,-0.1472 -0.1952,-0.0078 -0.5988,0.0157 -0.7475,0.1615 -0.1054,0.1032 -0.0936,0.2623 0.015,0.3585 0.1649,0.1462 0.5641,0.2374 0.7771,0.2851 0.2412,0.0542 0.4911,0.0985 0.7276,0.1692 0.5353,0.16 1.1207,0.4533 1.3541,0.9942 0.2632,0.6097 0.094,1.3242 -0.3788,1.7809 -0.8708,0.8411 -2.5427,0.705 -3.5313,0.1564 -0.2772,-0.1538 -0.6032,-0.3804 -0.6391,-0.7233 -0.0163,-0.1555 0.0217,-0.3133 0.1045,-0.4457 0.2612,-0.4182 0.8182,-0.4738 1.1707,-0.1291 0.3098,0.3029 0.7753,0.438 1.2015,0.4232 0.2249,-0.0079 0.6823,-0.0891 0.7766,-0.3355 0.0157,-0.041 0.0178,-0.083 0.0107,-0.1261 -0.0065,-0.0397 -0.0201,-0.0759 -0.0418,-0.1098 -0.17,-0.2664 -0.8378,-0.372 -1.135,-0.436 -0.5897,-0.1271 -1.0848,-0.2956 -1.5148,-0.7334 -0.3629,-0.3695 -0.4633,-0.9664 -0.2876,-1.4469 0.2709,-0.7408 1.0566,-1.0449 1.7811,-1.1347zm-31.8979 0.0022c0.6009,-0.0575 1.3055,0.0644 1.8207,0.3887 0.2244,0.1413 0.4522,0.3347 0.5679,0.5787 0.0947,0.1997 0.1071,0.4287 -0.0172,0.6191 -0.1394,0.2135 -0.3936,0.2932 -0.6383,0.2707 -0.1978,-0.0183 -0.349,-0.0849 -0.501,-0.2103 -0.0832,-0.0686 -0.1599,-0.1499 -0.2555,-0.2015 -0.3322,-0.1793 -1.1001,-0.2274 -1.4082,0.0169 -0.1021,0.081 -0.0803,0.28 0.0135,0.3562 0.1703,0.1384 0.5656,0.2281 0.7792,0.2766 0.2359,0.0536 0.4795,0.0992 0.711,0.1689 0.4464,0.1343 0.8966,0.358 1.1945,0.7274 0.2344,0.2908 0.3476,0.6429 0.315,1.0157 -0.0347,0.3983 -0.2313,0.7711 -0.5145,1.0493 -0.8437,0.8288 -2.5959,0.6959 -3.5504,0.129 -0.2061,-0.1223 -0.4254,-0.288 -0.5415,-0.5029 -0.0941,-0.174 -0.1117,-0.3692 -0.0295,-0.5513 0.12,-0.2658 0.4599,-0.4726 0.7504,-0.4503 0.0393,0.003 0.0781,0.0099 0.1161,0.0203 0.1436,0.0395 0.2599,0.1246 0.3733,0.2173 0.0824,0.0673 0.1683,0.1444 0.262,0.1953 0.1586,0.0864 0.3375,0.1431 0.5148,0.1755 0.2471,0.0452 0.5267,0.049 0.7715,-0.0122 0.1395,-0.0349 0.3355,-0.111 0.4052,-0.2483 0.0287,-0.0567 0.0316,-0.1173 0.0208,-0.1792 -0.006,-0.0342 -0.0175,-0.0657 -0.0358,-0.0953 -0.0868,-0.1396 -0.3255,-0.2246 -0.4737,-0.271 -0.2956,-0.0925 -0.6082,-0.1493 -0.9088,-0.227 -0.4657,-0.1204 -0.9637,-0.2938 -1.2812,-0.6755 -0.2417,-0.2906 -0.3804,-0.6564 -0.3592,-1.0366 0.0225,-0.4041 0.2195,-0.76 0.5242,-1.0214 0.3799,-0.3259 0.8841,-0.4759 1.3747,-0.5228zm3.3872 0.7768c-0.0001,-0.5471 0.4647,-0.9068 0.989,-0.7054 0.1288,0.0494 0.2366,0.1298 0.3134,0.2452 0.1787,0.2685 0.1274,0.6384 0.1274,0.9449l0 3.5551c0,0.479 -0.281,0.8193 -0.7828,0.7819 -0.5068,-0.0378 -0.6463,-0.4183 -0.6464,-0.8626l-0.0006 -3.9591zm0.4941 -2.7739c0.4398,-0.1405 0.9187,0.1427 1.0422,0.5777 0.1279,0.451 -0.1407,0.9451 -0.5983,1.0639 -0.2704,0.0702 -0.5469,0.0204 -0.7639,-0.1589 -0.1889,-0.156 -0.3058,-0.3907 -0.3173,-0.6354 -0.0196,-0.4161 0.2534,-0.7246 0.6373,-0.8473z"/>
 </g>
</svg>
